<?xml version="1.0" encoding="utf-8"?>
<!-- Generator: Adobe Illustrator 16.0.0, SVG Export Plug-In . SVG Version: 6.00 Build 0)  -->
<!DOCTYPE svg PUBLIC "-//W3C//DTD SVG 1.1//EN" "http://www.w3.org/Graphics/SVG/1.1/DTD/svg11.dtd">
<svg version="1.1" id="Layer_1" xmlns="http://www.w3.org/2000/svg" xmlns:xlink="http://www.w3.org/1999/xlink" x="0px" y="0px"
	 width="181px" height="177px" viewBox="257.445 130.14 181 177" enable-background="new 257.445 130.14 181 177"
	 xml:space="preserve">
<path fill="#005B7F" d="M381.897,194.626c0,11.075-0.016,22.15,0.024,33.226c0.003,1.016-0.272,1.23-1.255,1.229
	c-22.15-0.016-44.301,0-66.451,0.045c-0.985,0.002-1.261-0.225-1.26-1.235c0.018-15.191,0-30.384-0.029-45.577
	c-0.01-5.437-0.096-10.874-0.102-16.311c-0.002-1.717,0.164-3.434,0.213-5.15c0.021-0.718,0.193-1.039,1.034-1.026
	c22.229,0.311,44.46,0.133,66.689,0.128c0.969,0,1.183,0.283,1.18,1.206c-0.03,11.154-0.021,22.311-0.021,33.465
	C381.914,194.626,381.906,194.626,381.897,194.626z M347.333,212.168c0,0.038,0,0.075,0,0.111c5.64,0,11.279-0.021,16.918,0.021
	c0.947,0.007,1.286-0.155,1.28-1.213c-0.065-11.119-0.088-22.237-0.063-33.356c0.003-1.181-0.338-1.437-1.474-1.421
	c-11.078,0.146-22.156,0.245-33.233-0.065c-0.988-0.028-1.246,0.211-1.268,1.218c-0.241,11.197-0.102,22.396-0.221,33.593
	c-0.011,0.936,0.284,1.132,1.143,1.128C336.055,212.154,341.694,212.168,347.333,212.168z"/>
<path fill="#FBAB18" d="M323.28,253.27c-11.155,0-22.312-0.011-33.466,0.021c-0.939,0.002-1.302-0.155-1.301-1.211
	c0.025-22.15-0.123-44.303,0.094-66.453c0.011-1.109,0.221-1.488,1.428-1.457c4.516,0.117,9.036,0.143,13.553,0.112
	c1.123-0.008,1.468,0.236,1.466,1.43c-0.03,16.473,0.011,32.946-0.021,49.42c-0.002,1.181,0.312,1.413,1.442,1.414
	c16.354,0.008,32.707-0.144,49.061,0.09c2.371,0.034,2.353,0.04,2.365,2.409c0.022,4.317,0.031,8.636,0.132,12.953
	c0.023,1.041-0.199,1.335-1.285,1.331c-11.156-0.044-22.312-0.027-33.467-0.027C323.28,253.289,323.28,253.279,323.28,253.27z"/>
<path fill="#FBAB18" d="M406.353,170.145c0,10.997,0,21.995,0,32.992c0,1.697-0.001,1.724-1.639,1.678
	c-4.597-0.126-9.196,0.128-13.794-0.115c-0.92-0.05-1.159-0.331-1.158-1.248c0.021-16.477-0.012-32.951,0.019-49.428
	c0.002-1.227-0.292-1.569-1.559-1.566c-16.556,0.047-33.11,0.021-49.667,0.056c-1.046,0.002-1.334-0.231-1.322-1.308
	c0.048-4.759,0.013-9.518-0.053-14.275c-0.012-0.86,0.239-1.048,1.062-1.062c22.313-0.373,44.628,0.003,66.939-0.233
	c0.861-0.009,0.934,0.347,0.975,1.044c0.413,6.915,0.09,13.833,0.13,20.749c0.023,4.239,0.005,8.478,0.005,12.717
	C406.311,170.145,406.332,170.145,406.353,170.145z"/>
<path fill="#005B7F" d="M308.913,279.37c3.099-3.356,7.617-2.575,9.057,0.317c0.201,0.066,0.279-0.089,0.372-0.211
	c1.552-2.059,3.656-2.703,6.062-2.075c2.416,0.63,3.411,2.599,3.63,4.862c0.369,3.824,0.095,7.671,0.161,11.508
	c0.01,0.594-0.329,0.616-0.769,0.612c-1.239-0.012-2.479-0.042-3.718,0.01c-0.728,0.03-0.854-0.286-0.848-0.922
	c0.025-2.758,0.013-5.518,0.01-8.276c0-0.56,0.003-1.12-0.037-1.678c-0.14-1.978-1.43-2.77-3.24-2.005
	c-0.722,0.305-1.099,0.746-1.083,1.633c0.061,3.397-0.003,6.797,0.046,10.195c0.014,0.849-0.226,1.113-1.065,1.057
	c-1.075-0.071-2.161-0.063-3.237-0.002c-0.778,0.045-1.033-0.188-1.019-0.993c0.048-2.758,0.02-5.518,0.017-8.275
	c0-0.561,0.009-1.122-0.036-1.679c-0.157-1.959-1.497-2.723-3.292-1.898c-0.673,0.309-1.033,0.736-1.021,1.561
	c0.044,3.358-0.028,6.719,0.046,10.075c0.022,1.045-0.31,1.289-1.273,1.216c-1.113-0.084-2.238-0.038-3.356-0.013
	c-0.519,0.012-0.69-0.176-0.689-0.695c0.014-5.157,0.019-10.315-0.003-15.474c-0.003-0.622,0.259-0.741,0.789-0.714
	c0.598,0.03,1.199,0.003,1.799,0.007c0.719,0.004,1.508-0.167,2.14,0.073C309.05,277.849,308.44,278.843,308.913,279.37z"/>
<path fill="#005B7F" d="M282.38,283.064c0,3.397-0.026,6.795,0.018,10.191c0.011,0.843-0.126,1.239-1.091,1.157
	c-1.111-0.095-2.238-0.06-3.354-0.009c-0.691,0.031-0.882-0.212-0.872-0.885c0.036-2.396-0.032-4.797,0.037-7.192
	c0.027-0.934-0.283-1.139-1.154-1.111c-2.036,0.062-4.078,0.078-6.113-0.005c-0.993-0.041-1.19,0.321-1.168,1.219
	c0.055,2.317-0.008,4.636,0.033,6.953c0.013,0.745-0.14,1.079-0.974,1.027c-1.194-0.073-2.397-0.041-3.595-0.01
	c-0.564,0.016-0.765-0.166-0.764-0.749c0.016-7.073,0.017-14.147-0.001-21.222c-0.001-0.651,0.248-0.822,0.85-0.805
	c1.198,0.033,2.399,0.044,3.596-0.004c0.687-0.027,0.895,0.211,0.886,0.888c-0.032,2.558,0.018,5.116-0.03,7.673
	c-0.015,0.796,0.236,1.018,1.012,1c2.157-0.047,4.316-0.045,6.474,0c0.739,0.016,0.953-0.217,0.941-0.946
	c-0.04-2.517,0.02-5.035-0.034-7.553c-0.019-0.853,0.247-1.116,1.082-1.063c1.075,0.065,2.16,0.067,3.235-0.001
	c0.813-0.053,1.013,0.24,1.004,1.017C282.359,276.11,282.38,279.587,282.38,283.064z"/>
<path fill="#005B7F" d="M350.279,287.104c0.279,0,0.562,0.025,0.839-0.004c1.036-0.108,1.807-0.067,1.849,1.365
	c0.032,1.073,0.881,1.746,1.938,2.033c1.141,0.31,2.287,0.364,3.428,0.007c0.919-0.289,1.521-0.898,1.64-1.865
	c0.115-0.938-0.203-1.73-1.01-2.284c-0.934-0.64-1.994-1.001-3.049-1.364c-1.814-0.625-3.607-1.298-5.232-2.34
	c-3.548-2.272-3.686-7.102-0.278-9.587c3.147-2.297,8.84-2.341,12.026-0.108c1.582,1.107,2.368,2.645,2.577,4.532
	c0.075,0.682-0.146,0.946-0.845,0.904c-0.797-0.047-1.602-0.046-2.398-0.002c-1.1,0.062-1.938,0.083-2.248-1.417
	c-0.293-1.421-1.72-1.596-3.013-1.63c-1.27-0.032-2.407,0.235-3.035,1.479c-0.513,1.018-0.183,2.02,0.865,2.665
	c1.161,0.717,2.432,1.196,3.723,1.617c1.678,0.547,3.305,1.205,4.735,2.256c3.731,2.742,3.313,8.311-0.889,10.257
	c-3.816,1.768-7.691,1.564-11.388-0.505c-1.995-1.117-2.765-2.998-2.948-5.189c-0.053-0.622,0.146-0.875,0.792-0.829
	C348.997,287.141,349.639,287.105,350.279,287.104z"/>
<path fill="#005B7F" d="M372.917,279.157c3.415-3.567,8.416-1.875,9.837,2.346c0.998,2.963,1.09,5.973,0.056,8.941
	c-1.119,3.213-3.911,4.809-7.041,4.156c-0.962-0.2-1.735-0.727-2.642-1.616c0,2.425-0.056,4.561,0.024,6.691
	c0.039,1.026-0.301,1.312-1.277,1.229c-0.993-0.084-2.001-0.07-2.996-0.002c-0.831,0.059-1.092-0.194-1.08-1.054
	c0.049-3.438,0.021-6.877,0.021-10.315c0-3.68,0.021-7.357-0.017-11.036c-0.008-0.782,0.21-1.067,1.009-1.001
	c0.833,0.067,1.687,0.086,2.517-0.002C372.44,277.375,373.122,277.636,372.917,279.157z M373.127,286.021
	c0,0.798,0.056,1.603-0.014,2.395c-0.093,1.059,0.227,1.779,1.312,2.082c1.398,0.388,2.606,0.151,3.071-0.871
	c1.116-2.455,1.062-4.966-0.133-7.383c-0.466-0.942-1.688-1.215-2.863-0.819c-0.987,0.332-1.479,0.985-1.387,2.083
	C373.183,284.339,373.127,285.182,373.127,286.021z"/>
<path fill="#005B7F" d="M394.739,291.984c-1.978,2.64-3.583,3.244-6.36,2.479c-2.186-0.604-3.375-2.132-3.547-4.563
	c-0.148-2.085,0.89-3.796,2.854-4.688c1.723-0.782,3.564-0.776,5.402-0.86c0.5-0.022,1.266,0.449,1.5-0.438
	c0.308-1.154-0.229-2.422-1.109-2.78c-1.158-0.47-2.239-0.057-2.686,1.119c-0.146,0.387-0.315,0.485-0.672,0.481
	c-1.279-0.012-2.559-0.035-3.837-0.008c-0.696,0.016-0.791-0.308-0.704-0.896c0.245-1.646,1.203-2.793,2.604-3.527
	c2.78-1.458,5.68-1.549,8.545-0.295c2.05,0.896,3.072,2.584,3.149,4.832c0.102,2.914-0.187,5.836,0.196,8.742
	c0.052,0.394,0.136,0.785,0.231,1.171c0.404,1.629,0.408,1.628-1.354,1.623c-0.399-0.001-0.799-0.001-1.199-0.002
	C395.408,294.367,395.408,294.367,394.739,291.984z M393.334,287.183c-0.681-0.006-1.279-0.023-1.858,0.172
	c-0.967,0.329-1.513,1.259-1.314,2.252c0.19,0.961,0.953,1.454,2.073,1.328c0.735-0.082,1.374-0.388,1.915-0.893
	c0.769-0.718,0.494-1.665,0.402-2.484C394.467,286.801,393.682,287.364,393.334,287.183z"/>
<path fill="#005B7F" d="M428.716,287.614c-1.318,0-2.643,0.054-3.959-0.019c-0.885-0.048-0.912,0.299-0.666,0.967
	c0.389,1.06,1.084,1.757,2.211,1.962c1.699,0.311,3.355,0.065,4.938-0.562c0.719-0.285,1.121-0.232,1.293,0.563
	c0.023,0.114,0.1,0.219,0.145,0.329c0.895,2.251,0.896,2.258-1.479,3.091c-1.992,0.698-4.029,0.968-6.135,0.659
	c-3.006-0.439-5.108-2.063-6.082-4.921c-0.993-2.912-0.843-5.848,0.546-8.621c1.546-3.088,4.821-4.444,8.698-3.727
	c2.939,0.544,4.893,2.78,5.281,6.155c0.129,1.106,0.068,2.234,0.143,3.351c0.045,0.674-0.27,0.796-0.854,0.782
	C431.435,287.592,430.076,287.613,428.716,287.614z M426.117,284.287c0.6,0,1.199-0.004,1.797,0.002
	c0.32,0.003,0.486-0.085,0.535-0.46c0.123-0.932-0.428-2.142-1.172-2.434c-1.053-0.413-2.371,0.036-2.918,0.994
	c-0.855,1.492-0.633,1.899,1.039,1.9C425.636,284.29,425.876,284.29,426.117,284.287z"/>
<path fill="#005B7F" d="M340.755,287.614c-1.359,0-2.719,0.026-4.077-0.011c-0.657-0.018-0.747,0.246-0.57,0.788
	c0.374,1.155,1.085,1.935,2.325,2.146c1.702,0.289,3.36,0.053,4.932-0.593c0.774-0.317,1.006-0.097,1.276,0.595
	c1.028,2.623,1.05,2.649-1.644,3.512c-1.883,0.603-3.809,0.848-5.792,0.563c-3.159-0.453-5.314-2.167-6.231-5.203
	c-0.909-3.016-0.736-6.022,0.887-8.799c1.68-2.874,5.218-4.103,8.822-3.173c2.978,0.769,4.799,3.152,4.951,6.56
	c0.051,1.151,0.422,2.648-0.143,3.372c-0.594,0.759-2.16,0.165-3.298,0.238C341.716,287.639,341.235,287.614,340.755,287.614z
	 M338.26,284.29c0.52,0,1.041-0.037,1.557,0.009c0.7,0.063,0.808-0.299,0.719-0.867c-0.161-1.027-0.396-1.979-1.675-2.146
	c-1.219-0.159-2.12,0.331-2.588,1.45c-0.553,1.322-0.4,1.552,1.03,1.554C337.622,284.29,337.941,284.29,338.26,284.29z"/>
<path fill="#005B7F" d="M284.961,286.136c-0.141-1.718,0.197-3.225,0.891-4.626c1.354-2.735,3.532-4.19,6.65-4.229
	c1.772-0.021,3.488,0.064,5.042,1.027c2.256,1.397,3.331,3.537,3.661,6.069c0.233,1.791,0.154,3.589-0.479,5.32
	c-1.167,3.197-4.063,5.093-7.479,5.067c-4.636-0.035-7.359-2.484-8.27-6.979C284.861,287.213,284.961,286.597,284.961,286.136z
	 M296.013,286.015c0.099-0.81-0.099-1.741-0.325-2.659c-0.32-1.302-1.143-1.988-2.294-2.01c-1.709-0.031-2.349,0.376-2.807,1.883
	c-0.577,1.899-0.574,3.789,0.047,5.701c0.372,1.146,1.188,1.704,2.245,1.773c1.113,0.072,2.086-0.375,2.603-1.507
	C295.923,288.226,296.002,287.204,296.013,286.015z"/>
<path fill="#005B7F" d="M414.505,283.989c-0.28,0-0.562-0.024-0.838,0.005c-0.941,0.101-1.638,0.025-1.762-1.218
	c-0.09-0.902-0.81-1.438-1.771-1.485c-0.994-0.052-1.892,0.229-2.275,1.201c-0.9,2.275-0.889,4.609-0.031,6.89
	c0.407,1.083,1.418,1.328,2.486,1.246c1.01-0.077,1.635-0.65,1.75-1.648c0.063-0.547,0.313-0.629,0.774-0.621
	c1.118,0.021,2.239,0.046,3.354-0.008c0.689-0.034,0.771,0.263,0.752,0.848c-0.086,2.456-2.135,4.693-4.921,5.325
	c-5.512,1.248-9.849-2.107-10.025-7.754c-0.053-1.685,0.016-3.345,0.675-4.938c1.863-4.509,7.983-6.215,11.897-3.292
	c1.498,1.119,2.251,2.639,2.377,4.505c0.047,0.701-0.092,1.057-0.886,0.958C415.55,283.937,415.024,283.989,414.505,283.989z"/>
<path fill="#FBAB18" d="M354.502,194.561c0,1.997-0.021,3.995,0.012,5.991c0.012,0.641-0.125,0.91-0.844,0.905
	c-3.954-0.026-7.908-0.016-11.861,0.018c-0.724,0.006-1.055-0.128-1.045-0.969c0.044-3.994,0.042-7.988,0.001-11.982
	c-0.009-0.818,0.287-0.998,1.031-0.99c3.954,0.034,7.908,0.046,11.862,0.021c0.709-0.004,0.869,0.24,0.856,0.896
	C354.479,190.486,354.502,192.523,354.502,194.561z"/>
</svg>
