<?xml version="1.0" encoding="utf-8"?>
<!-- Generator: Adobe Illustrator 16.0.0, SVG Export Plug-In . SVG Version: 6.00 Build 0)  -->
<!DOCTYPE svg PUBLIC "-//W3C//DTD SVG 1.1//EN" "http://www.w3.org/Graphics/SVG/1.1/DTD/svg11.dtd">
<svg version="1.1" id="Layer_1" xmlns="http://www.w3.org/2000/svg" xmlns:xlink="http://www.w3.org/1999/xlink" x="0px" y="0px"
	 width="215.333px" height="39.333px" viewBox="0 0 215.333 39.333" enable-background="new 0 0 215.333 39.333"
	 xml:space="preserve">
<g>
	<path fill-rule="evenodd" clip-rule="evenodd" fill="#005B7F" d="M87.067,14.898c3.1-3.357,7.617-2.576,9.057,0.318
		c0.201,0.066,0.279-0.09,0.373-0.211c1.551-2.059,3.656-2.703,6.061-2.076c2.416,0.631,3.41,2.598,3.629,4.863
		c0.369,3.822,0.096,7.67,0.162,11.508c0.01,0.594-0.328,0.615-0.768,0.611c-1.24-0.012-2.48-0.041-3.719,0.01
		c-0.727,0.031-0.854-0.285-0.848-0.922c0.027-2.758,0.014-5.518,0.01-8.275c0-0.561,0.004-1.121-0.037-1.678
		c-0.139-1.979-1.43-2.771-3.238-2.006c-0.723,0.305-1.1,0.746-1.084,1.633c0.059,3.398-0.004,6.797,0.047,10.195
		c0.012,0.85-0.227,1.113-1.066,1.057c-1.076-0.072-2.162-0.064-3.238-0.002c-0.777,0.045-1.033-0.188-1.018-0.992
		c0.047-2.76,0.02-5.518,0.016-8.277c0-0.559,0.01-1.121-0.035-1.678c-0.156-1.959-1.496-2.723-3.291-1.9
		c-0.674,0.311-1.033,0.736-1.023,1.561c0.045,3.359-0.027,6.719,0.047,10.076c0.023,1.045-0.309,1.287-1.273,1.215
		c-1.113-0.084-2.238-0.037-3.357-0.012c-0.518,0.012-0.689-0.178-0.688-0.695c0.014-5.158,0.018-10.316-0.004-15.475
		c-0.004-0.621,0.258-0.74,0.789-0.713c0.598,0.029,1.199,0.002,1.799,0.006c0.719,0.006,1.508-0.166,2.139,0.074
		C87.204,13.377,86.594,14.371,87.067,14.898z"/>
	<path fill-rule="evenodd" clip-rule="evenodd" fill="#005B7F" d="M60.534,18.592c0,3.396-0.025,6.795,0.02,10.191
		c0.01,0.842-0.127,1.238-1.092,1.156c-1.111-0.094-2.238-0.059-3.355-0.008c-0.689,0.031-0.88-0.211-0.871-0.885
		c0.035-2.398-0.033-4.797,0.037-7.193c0.027-0.934-0.283-1.139-1.154-1.111c-2.037,0.063-4.078,0.078-6.113-0.006
		c-0.992-0.039-1.189,0.322-1.168,1.221c0.055,2.316-0.008,4.635,0.033,6.953c0.014,0.744-0.141,1.078-0.975,1.027
		c-1.193-0.074-2.396-0.041-3.596-0.01c-0.564,0.014-0.764-0.166-0.764-0.75c0.018-7.072,0.018-14.146,0-21.221
		c-0.002-0.65,0.248-0.822,0.85-0.805c1.197,0.032,2.398,0.044,3.596-0.004c0.688-0.027,0.895,0.211,0.887,0.888
		c-0.033,2.558,0.018,5.117-0.031,7.673c-0.016,0.795,0.236,1.018,1.012,1c2.158-0.047,4.316-0.045,6.475,0
		c0.738,0.016,0.953-0.217,0.941-0.947c-0.041-2.516,0.02-5.036-0.035-7.552c-0.018-0.853,0.248-1.116,1.082-1.064
		c1.074,0.066,2.16,0.068,3.234-0.001c0.813-0.053,1.014,0.241,1.006,1.018C60.514,11.639,60.534,15.115,60.534,18.592z"/>
	<path fill-rule="evenodd" clip-rule="evenodd" fill="#005B7F" d="M128.432,22.633c0.281,0,0.563,0.025,0.84-0.004
		c1.035-0.109,1.807-0.068,1.85,1.363c0.031,1.074,0.881,1.746,1.938,2.033c1.141,0.311,2.287,0.365,3.428,0.008
		c0.92-0.289,1.521-0.898,1.641-1.865c0.115-0.938-0.203-1.73-1.01-2.283c-0.934-0.641-1.994-1.002-3.049-1.365
		c-1.814-0.625-3.607-1.297-5.232-2.34c-3.547-2.273-3.686-7.101-0.279-9.586c3.148-2.297,8.84-2.342,12.027-0.109
		c1.582,1.107,2.369,2.645,2.578,4.534c0.074,0.68-0.146,0.945-0.846,0.904c-0.797-0.047-1.6-0.047-2.398-0.002
		c-1.1,0.061-1.938,0.082-2.246-1.418c-0.295-1.42-1.721-1.596-3.014-1.629c-1.27-0.032-2.406,0.234-3.035,1.481
		c-0.514,1.016-0.184,2.018,0.865,2.664c1.162,0.717,2.432,1.195,3.723,1.617c1.678,0.547,3.305,1.205,4.736,2.256
		c3.73,2.742,3.313,8.311-0.889,10.256c-3.816,1.768-7.691,1.566-11.387-0.504c-1.996-1.117-2.766-2.998-2.949-5.189
		c-0.053-0.623,0.146-0.875,0.791-0.83C127.151,22.67,127.793,22.633,128.432,22.633z"/>
	<path fill-rule="evenodd" clip-rule="evenodd" fill="#005B7F" d="M151.071,14.686c3.414-3.567,8.416-1.875,9.836,2.346
		c0.998,2.963,1.092,5.973,0.057,8.941c-1.119,3.213-3.912,4.809-7.041,4.156c-0.963-0.199-1.736-0.727-2.641-1.615
		c0,2.424-0.057,4.561,0.023,6.691c0.039,1.025-0.301,1.311-1.277,1.229c-0.992-0.084-2-0.072-2.996-0.002
		c-0.83,0.057-1.092-0.195-1.08-1.055c0.049-3.438,0.021-6.877,0.021-10.316c0-3.678,0.02-7.357-0.018-11.035
		c-0.008-0.783,0.211-1.066,1.01-1.002c0.834,0.068,1.686,0.086,2.516-0.002C150.594,12.902,151.276,13.164,151.071,14.686z
		 M151.282,21.549c0,0.799,0.055,1.602-0.014,2.395c-0.092,1.059,0.227,1.779,1.311,2.08c1.398,0.389,2.607,0.152,3.072-0.871
		c1.115-2.453,1.061-4.965-0.135-7.383c-0.465-0.941-1.686-1.213-2.861-0.818c-0.988,0.332-1.48,0.984-1.387,2.084
		C151.336,19.867,151.282,20.711,151.282,21.549z"/>
	<path fill-rule="evenodd" clip-rule="evenodd" fill="#005B7F" d="M172.893,27.512c-1.977,2.641-3.584,3.244-6.359,2.479
		c-2.188-0.604-3.375-2.133-3.547-4.563c-0.148-2.086,0.889-3.797,2.854-4.688c1.723-0.783,3.564-0.777,5.402-0.861
		c0.5-0.021,1.264,0.449,1.5-0.438c0.307-1.154-0.23-2.422-1.109-2.779c-1.158-0.471-2.24-0.057-2.686,1.119
		c-0.146,0.387-0.316,0.484-0.672,0.482c-1.279-0.014-2.559-0.037-3.838-0.01c-0.695,0.016-0.791-0.307-0.703-0.896
		c0.244-1.645,1.203-2.793,2.604-3.527c2.779-1.457,5.678-1.549,8.543-0.295c2.051,0.898,3.074,2.584,3.15,4.832
		c0.102,2.914-0.186,5.836,0.197,8.742c0.051,0.395,0.135,0.785,0.23,1.172c0.404,1.629,0.408,1.627-1.354,1.623
		c-0.398-0.002-0.799-0.002-1.199-0.004C173.561,29.895,173.561,29.895,172.893,27.512z M171.489,22.711
		c-0.682-0.006-1.279-0.023-1.859,0.172c-0.967,0.328-1.512,1.26-1.314,2.252c0.191,0.961,0.953,1.453,2.072,1.328
		c0.736-0.082,1.375-0.389,1.916-0.893c0.768-0.719,0.494-1.664,0.402-2.484C172.622,22.33,171.836,22.893,171.489,22.711z"/>
	<path fill-rule="evenodd" clip-rule="evenodd" fill="#005B7F" d="M206.87,23.143c-1.318,0-2.643,0.053-3.957-0.02
		c-0.887-0.047-0.912,0.299-0.668,0.967c0.389,1.059,1.086,1.758,2.211,1.963c1.699,0.311,3.355,0.064,4.938-0.563
		c0.719-0.285,1.121-0.232,1.293,0.564c0.025,0.113,0.1,0.217,0.145,0.328c0.893,2.252,0.896,2.258-1.48,3.092
		c-1.99,0.697-4.029,0.967-6.135,0.658c-3.004-0.439-5.107-2.063-6.08-4.922c-0.994-2.91-0.842-5.848,0.545-8.621
		c1.547-3.088,4.822-4.443,8.699-3.727c2.939,0.545,4.891,2.779,5.281,6.154c0.129,1.107,0.068,2.236,0.143,3.352
		c0.045,0.674-0.27,0.795-0.854,0.781C209.59,23.121,208.229,23.141,206.87,23.143z M204.27,19.814c0.6,0,1.199-0.004,1.799,0.002
		c0.32,0.004,0.484-0.084,0.535-0.459c0.123-0.932-0.428-2.141-1.172-2.434c-1.053-0.412-2.371,0.037-2.92,0.994
		c-0.854,1.492-0.631,1.9,1.039,1.9C203.792,19.818,204.032,19.818,204.27,19.814z"/>
	<path fill-rule="evenodd" clip-rule="evenodd" fill="#005B7F" d="M118.909,23.143c-1.357,0-2.719,0.025-4.076-0.012
		c-0.658-0.018-0.746,0.246-0.57,0.789c0.373,1.154,1.084,1.934,2.326,2.145c1.701,0.289,3.359,0.053,4.93-0.592
		c0.775-0.318,1.008-0.098,1.277,0.594c1.029,2.623,1.051,2.65-1.643,3.512c-1.885,0.604-3.811,0.848-5.793,0.563
		c-3.158-0.453-5.314-2.166-6.23-5.203c-0.91-3.016-0.736-6.021,0.887-8.799c1.68-2.873,5.217-4.102,8.822-3.172
		c2.977,0.768,4.799,3.152,4.951,6.559c0.051,1.152,0.422,2.65-0.143,3.373c-0.594,0.758-2.16,0.164-3.299,0.238
		C119.87,23.168,119.389,23.143,118.909,23.143z M116.415,19.818c0.518,0,1.041-0.037,1.555,0.008
		c0.701,0.063,0.809-0.299,0.719-0.867c-0.16-1.025-0.395-1.979-1.676-2.145c-1.217-0.158-2.119,0.33-2.588,1.451
		c-0.551,1.322-0.398,1.551,1.031,1.553C115.776,19.818,116.094,19.818,116.415,19.818z"/>
	<path fill-rule="evenodd" clip-rule="evenodd" fill="#005B7F" d="M63.116,21.664c-0.141-1.719,0.197-3.225,0.891-4.627
		c1.354-2.734,3.531-4.189,6.648-4.229c1.773-0.02,3.488,0.064,5.043,1.027c2.256,1.396,3.332,3.537,3.66,6.07
		c0.234,1.789,0.154,3.588-0.479,5.32c-1.166,3.197-4.063,5.092-7.479,5.066c-4.637-0.035-7.359-2.484-8.27-6.98
		C63.014,22.742,63.116,22.125,63.116,21.664z M74.167,21.543c0.1-0.811-0.1-1.742-0.324-2.658c-0.32-1.303-1.143-1.99-2.295-2.012
		c-1.709-0.029-2.35,0.377-2.807,1.883c-0.576,1.9-0.574,3.791,0.047,5.701c0.373,1.146,1.189,1.703,2.244,1.773
		c1.113,0.072,2.086-0.375,2.604-1.506C74.077,23.754,74.157,22.732,74.167,21.543z"/>
	<path fill-rule="evenodd" clip-rule="evenodd" fill="#005B7F" d="M192.659,19.518c-0.279,0-0.561-0.025-0.838,0.004
		c-0.941,0.102-1.639,0.025-1.762-1.217c-0.09-0.904-0.809-1.438-1.771-1.486c-0.994-0.051-1.891,0.229-2.275,1.201
		c-0.9,2.275-0.887,4.609-0.031,6.889c0.408,1.084,1.418,1.328,2.486,1.246c1.01-0.076,1.635-0.65,1.75-1.648
		c0.064-0.547,0.314-0.629,0.775-0.619c1.119,0.02,2.238,0.045,3.355-0.008c0.689-0.035,0.771,0.262,0.752,0.848
		c-0.088,2.455-2.135,4.693-4.922,5.324c-5.512,1.248-9.848-2.107-10.025-7.754c-0.053-1.686,0.016-3.346,0.674-4.939
		c1.863-4.508,7.984-6.215,11.898-3.291c1.496,1.119,2.25,2.639,2.377,4.504c0.047,0.701-0.092,1.059-0.887,0.959
		C193.704,19.465,193.178,19.518,192.659,19.518z"/>
</g>
<g>
	<path fill-rule="evenodd" clip-rule="evenodd" fill="#005B7F" d="M26.227,17.322c0,2.604-0.002,5.209,0.006,7.813
		c0.002,0.238-0.064,0.289-0.295,0.287c-5.207-0.002-10.414,0-15.622,0.012c-0.231,0-0.297-0.053-0.296-0.291
		c0.004-3.572,0-7.143-0.008-10.715c-0.002-1.279-0.022-2.557-0.024-3.835c0-0.403,0.039-0.808,0.051-1.211
		c0.005-0.169,0.046-0.245,0.243-0.241c5.227,0.072,10.453,0.03,15.68,0.029c0.227,0,0.277,0.066,0.277,0.284
		c-0.008,2.623-0.006,5.246-0.006,7.869C26.231,17.322,26.229,17.322,26.227,17.322z M18.102,21.445c0,0.01,0,0.018,0,0.027
		c1.326,0,2.652-0.006,3.977,0.006c0.223,0,0.303-0.037,0.301-0.285c-0.014-2.615-0.02-5.23-0.014-7.844
		c0-0.277-0.08-0.338-0.346-0.334c-2.605,0.035-5.209,0.057-7.814-0.016c-0.232-0.006-0.292,0.051-0.298,0.287
		c-0.057,2.631-0.023,5.266-0.051,7.896c-0.004,0.221,0.066,0.268,0.267,0.266C15.45,21.443,16.776,21.445,18.102,21.445z"/>
	<path fill-rule="evenodd" clip-rule="evenodd" fill="#FBAB18" d="M12.446,31.109c-2.623,0-5.245-0.002-7.868,0.004
		c-0.22,0.002-0.306-0.035-0.306-0.283c0.006-5.207-0.029-10.416,0.022-15.625c0.003-0.26,0.052-0.35,0.336-0.342
		c1.062,0.027,2.125,0.033,3.187,0.025c0.264-0.002,0.346,0.057,0.345,0.338C8.155,19.1,8.165,22.973,8.157,26.846
		c-0.001,0.277,0.072,0.332,0.339,0.332c3.845,0.002,7.69-0.033,11.534,0.021c0.557,0.008,0.553,0.01,0.557,0.564
		c0.004,1.016,0.008,2.031,0.031,3.047c0.006,0.244-0.047,0.314-0.303,0.313c-2.623-0.01-5.246-0.006-7.869-0.006
		C12.446,31.113,12.446,31.111,12.446,31.109z"/>
	<path fill-rule="evenodd" clip-rule="evenodd" fill="#FBAB18" d="M31.977,11.566c0,2.584,0,5.17,0,7.756c0,0.4,0,0.406-0.385,0.395
		c-1.082-0.029-2.162,0.031-3.244-0.027c-0.215-0.012-0.271-0.078-0.271-0.293c0.004-3.873-0.002-7.746,0.004-11.622
		c0-0.287-0.068-0.369-0.365-0.368C23.823,7.417,19.93,7.412,16.038,7.42c-0.246,0-0.313-0.054-0.311-0.308
		c0.012-1.119,0.004-2.238-0.012-3.356c-0.004-0.202,0.057-0.247,0.248-0.25c5.246-0.087,10.492,0.001,15.738-0.054
		c0.203-0.003,0.221,0.08,0.229,0.244c0.098,1.627,0.021,3.253,0.031,4.879c0.006,0.996,0.002,1.993,0.002,2.991
		C31.967,11.566,31.973,11.566,31.977,11.566z"/>
	<path fill-rule="evenodd" clip-rule="evenodd" fill="#FBAB18" d="M19.788,17.307c0,0.469-0.006,0.939,0.002,1.408
		c0.004,0.15-0.029,0.215-0.197,0.213c-0.93-0.006-1.859-0.004-2.789,0.004c-0.17,0.002-0.248-0.029-0.246-0.227
		c0.01-0.939,0.01-1.879,0-2.818c-0.002-0.193,0.068-0.234,0.242-0.232c0.93,0.008,1.859,0.01,2.789,0.004
		c0.166,0,0.205,0.057,0.201,0.211C19.782,16.35,19.788,16.828,19.788,17.307z"/>
</g>
</svg>
